<svg width="151" height="41" viewBox="0 0 151 41" fill="none" xmlns="http://www.w3.org/2000/svg">
<path d="M21.0033 35.1553L22.7379 39.6505H28.9799L18.6457 15H12.3304L1.75195 39.6383H7.72524L9.49646 35.143H21.0033V35.1553ZM15.311 20.3503L19.342 30.8433H11.2066L15.311 20.3503Z" fill="#8B1724"/>
<path d="M54.3753 39.6383H59.4813V15H51.2604L45.8735 30.4646L40.4987 15H32.2656V39.6383H37.4205V21.413L43.9923 39.6383H47.7669L54.3387 21.4253L54.3753 39.6383Z" fill="#8B1724"/>
<path d="M85.231 15H62.877V20.4969H71.0856V39.6383H76.9612V20.4969H85.231V15Z" fill="#8B1724"/>
<path d="M103.37 29.7927V24.7723H94.6119V20.5091H108.012V15H88.7363V39.6383H108.379V34.1292H94.6119V29.8294L103.37 29.7927Z" fill="#8B1724"/>
<path d="M136.768 15H129.757L124.162 22.9888L118.677 15H111.874L120.607 27.2764L120.339 27.7284L111.861 39.6383H118.677L124.162 31.6495L129.757 39.6383H136.768L128.144 27.3253L136.768 15Z" fill="#8B1724"/>
<path fill-rule="evenodd" clip-rule="evenodd" d="M146.124 1.68555H136.779V5.64331H146.124V15.0002H150.094V1.68555H146.124Z" fill="#8B1724"/>
<path fill-rule="evenodd" clip-rule="evenodd" d="M140.994 15.0005H143.999V11.739V7.78125H140.041H136.779V10.7862H140.994V15.0005Z" fill="#D3A54B"/>
</svg>
