<svg width="22" height="22" viewBox="0 0 22 22" fill="none" xmlns="http://www.w3.org/2000/svg">
<path d="M8.25 10.3125C12.047 10.3125 15.125 8.92738 15.125 7.21875C15.125 5.51012 12.047 4.125 8.25 4.125C4.45304 4.125 1.375 5.51012 1.375 7.21875C1.375 8.92738 4.45304 10.3125 8.25 10.3125Z" stroke="#717171" stroke-width="1.5" stroke-linecap="round" stroke-linejoin="round"/>
<path d="M1.375 7.21875V10.6562C1.375 12.3664 4.45156 13.75 8.25 13.75C12.0484 13.75 15.125 12.3664 15.125 10.6562V7.21875" stroke="#717171" stroke-width="1.5" stroke-linecap="round" stroke-linejoin="round"/>
<path d="M5.5 10.0547V13.4922" stroke="#717171" stroke-width="1.5" stroke-linecap="round" stroke-linejoin="round"/>
<path d="M15.1289 8.31042C18.2656 8.60261 20.6289 9.84871 20.6289 11.344C20.6289 13.0542 17.5523 14.4378 13.7539 14.4378C12.0695 14.4378 10.5227 14.1628 9.32812 13.7159" stroke="#717171" stroke-width="1.5" stroke-linecap="round" stroke-linejoin="round"/>
<path d="M6.875 13.6898V14.7812C6.875 16.4914 9.95156 17.875 13.75 17.875C17.5484 17.875 20.625 16.4914 20.625 14.7812V11.3438" stroke="#717171" stroke-width="1.5" stroke-linecap="round" stroke-linejoin="round"/>
<path d="M16.5 14.1797V17.6172" stroke="#717171" stroke-width="1.5" stroke-linecap="round" stroke-linejoin="round"/>
<path d="M11 10.0547V17.6172" stroke="#717171" stroke-width="1.5" stroke-linecap="round" stroke-linejoin="round"/>
</svg>
