<svg width="29" height="29" viewBox="0 0 29 29" fill="none" xmlns="http://www.w3.org/2000/svg">
<circle cx="14.5339" cy="14.4699" r="14.3581" fill="#898989"/>
<path fill-rule="evenodd" clip-rule="evenodd" d="M11.9387 9.8129C11.9387 10.5359 11.3944 11.1145 10.5205 11.1145H10.5045C9.66309 11.1145 9.11914 10.5359 9.11914 9.8129C9.11914 9.07457 9.67966 8.51221 10.537 8.51221C11.3944 8.51221 11.9224 9.07457 11.9387 9.8129ZM11.7736 12.1422V19.6725H9.26739V12.1422H11.7736ZM20.8113 19.6724L20.8114 15.3548C20.8114 13.0418 19.575 11.9653 17.9258 11.9653C16.5951 11.9653 15.9994 12.6962 15.6667 13.209V12.1424H13.1602C13.1932 12.849 13.1602 19.6726 13.1602 19.6726H15.6667V15.4671C15.6667 15.242 15.683 15.0175 15.7492 14.8564C15.9304 14.4068 16.3428 13.9413 17.0352 13.9413C17.9425 13.9413 18.3052 14.6318 18.3052 15.6437V19.6724H20.8113Z" fill="white"/>
</svg>
