<svg width="15" height="11" viewBox="0 0 15 11" fill="none" xmlns="http://www.w3.org/2000/svg">
<path d="M1.4807 0.00244141H13.1899C13.935 0.00244141 14.541 0.608489 14.541 1.35352V9.45993C14.541 10.205 13.935 10.811 13.1899 10.811H1.4807C0.735667 10.811 0.12962 10.205 0.12962 9.45993V1.35352C0.12962 0.608489 0.735667 0.00244141 1.4807 0.00244141ZM1.4807 0.90315C1.41951 0.90315 1.3613 0.915845 1.30808 0.938016L7.33532 6.16186L13.3626 0.938016C13.3094 0.915875 13.2512 0.90315 13.19 0.90315H1.4807ZM1.4807 9.91026H13.1899C13.4384 9.91026 13.6403 9.70841 13.6403 9.4599V1.88962L7.63043 7.09819C7.54554 7.17162 7.44043 7.20814 7.33532 7.20814C7.23021 7.20814 7.1251 7.17165 7.04021 7.09819L1.03033 1.88962V9.45993C1.03036 9.70841 1.23221 9.91026 1.4807 9.91026Z" fill="#8B1724"/>
</svg>
