<svg width="13" height="13" viewBox="0 0 13 13" fill="none" xmlns="http://www.w3.org/2000/svg">
<path d="M8.00815 3.27848C8.53721 3.38171 9.02344 3.64046 9.4046 4.02161C9.78576 4.40277 10.0445 4.889 10.1477 5.41807M8.00815 1.11182C9.10734 1.23393 10.1323 1.72616 10.9149 2.5077C11.6974 3.28923 12.1909 4.31361 12.3144 5.41265M11.7727 9.73515V11.3601C11.7733 11.511 11.7424 11.6603 11.682 11.7985C11.6216 11.9368 11.5329 12.0608 11.4218 12.1628C11.3106 12.2648 11.1794 12.3425 11.0365 12.3908C10.8936 12.4391 10.7421 12.4571 10.5919 12.4435C8.9251 12.2624 7.32402 11.6928 5.91731 10.7806C4.60855 9.94893 3.49895 8.83933 2.66731 7.53057C1.75188 6.11747 1.18219 4.5086 1.0044 2.83432C0.990861 2.68453 1.00866 2.53356 1.05667 2.39103C1.10467 2.2485 1.18183 2.11752 1.28323 2.00644C1.38463 1.89537 1.50804 1.80662 1.64562 1.74585C1.78319 1.68508 1.93191 1.65362 2.08231 1.65348H3.70731C3.97019 1.6509 4.22503 1.74398 4.42435 1.9154C4.62367 2.08681 4.75386 2.32485 4.79065 2.58515C4.85923 3.10519 4.98643 3.61579 5.16981 4.10723C5.24269 4.30111 5.25846 4.51181 5.21526 4.71438C5.17206 4.91694 5.0717 5.10288 4.92606 5.25015L4.23815 5.93807C5.00924 7.29415 6.13206 8.41697 7.48815 9.18807L8.17606 8.50015C8.32334 8.35452 8.50927 8.25415 8.71184 8.21095C8.9144 8.16775 9.1251 8.18352 9.31898 8.2564C9.81042 8.43978 10.321 8.56698 10.8411 8.63557C11.1042 8.67269 11.3445 8.80522 11.5163 9.00796C11.688 9.2107 11.7793 9.4695 11.7727 9.73515Z" stroke="#8B1724" stroke-width="0.8" stroke-linecap="round" stroke-linejoin="round"/>
</svg>
