<svg width="16" height="16" viewBox="0 0 16 16" fill="none" xmlns="http://www.w3.org/2000/svg">
<path d="M4.21241 2.7519C5.31409 1.65019 6.7789 1.04346 8.33693 1.04346C9.89496 1.04346 11.3598 1.65019 12.4615 2.7519C13.5632 3.85364 14.1699 5.31841 14.1699 6.87642C14.1699 10.0283 11.1898 12.6498 9.58873 14.0582C9.36624 14.2539 9.1741 14.4229 9.02103 14.5659C8.82924 14.745 8.58307 14.8346 8.33696 14.8346C8.09079 14.8346 7.84468 14.745 7.65287 14.5659C7.49979 14.4229 7.30765 14.2539 7.08516 14.0582C5.48411 12.6498 2.50397 10.0283 2.50397 6.87642C2.504 5.31841 3.1107 3.85364 4.21241 2.7519ZM7.61876 13.4516C7.84613 13.6516 8.04247 13.8244 8.20435 13.9756C8.27872 14.045 8.3952 14.045 8.46959 13.9756C8.63145 13.8243 8.82781 13.6516 9.05518 13.4516C10.5604 12.1276 13.3621 9.66295 13.3621 6.87645C13.3621 4.10559 11.1079 1.85135 8.33699 1.85135C5.56613 1.85135 3.31189 4.10559 3.31189 6.87645C3.31186 9.66295 6.11358 12.1276 7.61876 13.4516Z" fill="#8B1724"/>
<path d="M8.33767 4.08545C9.75507 4.08545 10.9082 5.23855 10.9082 6.65595C10.9082 8.07335 9.75507 9.22645 8.33767 9.22645C6.92028 9.22645 5.76717 8.07335 5.76717 6.65595C5.76717 5.23855 6.92028 4.08545 8.33767 4.08545ZM8.33767 8.41856C9.30961 8.41856 10.1003 7.62783 10.1003 6.65592C10.1003 5.68402 9.30961 4.89329 8.33767 4.89329C7.36574 4.89329 6.57504 5.68402 6.57504 6.65592C6.57504 7.62783 7.36574 8.41856 8.33767 8.41856Z" fill="#8B1724"/>
</svg>
